{"title":"ROH 2016 03 26 720p HDTV h264-E9P [TJET]","uid":14051626,"size":710424396,"categoryP":"video","categoryS":"hd___tv_shows","magnet":"?xt=urn:btih:b04c6084337fba95b3cf0f9926654f0e656fcf72&amp;dn=ROH+2016+03+26+720p+HDTV+h264-E9P+%5BTJET%5D&amp;tr=udp%3A%2F%2Ftracker.leechers-paradise.org%3A6969&amp;tr=udp%3A%2F%2Fzer0day.ch%3A1337&amp;tr=udp%3A%2F%2Fopen.demonii.com%3A1337&amp;tr=udp%3A%2F%2Ftracker.coppersurfer.tk%3A6969&amp;tr=udp%3A%2F%2Fexodus.desync.com%3A6969","seeders":1,"leechers":0,"uploader":"CenaCme","files":2,"time":1459057636,"description":"ROH TV 2016-03-26\r\nSam's Town - Las Vegas, NV\r\n\r\nFour Corner Survival Match - Adam Page vs. Matt Sydal vs. Moose vs. Roderick Strong\r\nFoxx Vinyer vs Cheeseburger\r\nROH World Title Match - Jay Lethal vs. Hirooki Goto\r\n\r\nGeneral\r\nComplete name                            : ROH.2016.03.26.720p.HDTV.h264-E9P.mp4\r\nFormat                                   : MPEG-4\r\nFormat profile                           : Base Media\r\nCodec ID                                 : isom\r\nFile size                                : 678 MiB\r\nDuration                                 : 49mn 29s\r\nOverall bit rate mode                    : Variable\r\nOverall bit rate                         : 1 914 Kbps\r\nEncoded date                             : UTC 2016-03-27 02:32:14\r\nTagged date                              : UTC 2016-03-27 02:32:14\r\nWriting application                      : My MP4Box GUI 0.6.0.6 &lt;http://my-mp4box-gui.zymichost.com&gt;\r\n\r\nVideo\r\nID                                       : 1\r\nFormat                                   : AVC\r\nFormat/Info                              : Advanced Video Codec\r\nFormat profile                           :   \r\nFormat settings, CABAC                   : Yes\r\nFormat settings, ReFrames                : 3 frames\r\nFormat settings, GOP                     : M=1, N=59\r\nCodec ID                                 : avc1\r\nCodec ID/Info                            : Advanced Video Coding\r\nDuration                                 : 49mn 29s\r\nSource duration                          : 49mn 29s\r\nBit rate mode                            : Variable\r\nBit rate                                 : 1 782 Kbps\r\nMaximum bit rate                         : 1 760 Kbps\r\nWidth                                    : 1 280 pixels\r\nHeight                                   : 720 pixels\r\nDisplay aspect ratio                     : 16:9\r\nFrame rate mode                          : Variable\r\nFrame rate                               : 29.970 fps\r\nMinimum frame rate                       : 29.354 fps\r\nMaximum frame rate                       : 30.323 fps\r\nStandard                                 : NTSC\r\nColor space                              : YUV\r\nChroma subsampling                       : 4:2:0\r\nBit depth                                : 8 bits\r\nScan type                                : Progressive\r\nBits/(Pixel*Frame)                       : 0.065\r\nStream size                              : 631 MiB (93%)\r\nSource stream size                       : 631 MiB (93%)\r\nTagged date                              : UTC 2016-03-27 02:32:26\r\n\r\nAudio\r\nID                                       : 2\r\nFormat                                   : AAC\r\nFormat/Info                              : Advanced Audio Codec\r\nFormat profile                           : LC\r\nCodec ID                                 : 40\r\nDuration                                 : 49mn 29s\r\nBit rate mode                            : Constant\r\nBit rate                                 : 128 Kbps\r\nChannel(s)                               : 2 channels\r\nChannel positions                        : Front: L R\r\nSampling rate                            : 48.0 KHz\r\nCompression mode                         : Lossy\r\nStream size                              : 45.3 MiB (7%)\r\nTagged date                              : UTC 2016-03-27 02:32:26\r\n\r\n\r\nScreenshot:\r\n \nhttp://extraimago.com/image/a1Gg\r\n\r\nThumb sheet:\r\n \nhttp://extraimago.com/image/a1G5","torrent":{"xt":"urn:btih:b04c6084337fba95b3cf0f9926654f0e656fcf72","amp;dn":"ROH+2016+03+26+720p+HDTV+h264-E9P+%5BTJET%5D","amp;tr":["udp%3A%2F%2Ftracker.leechers-paradise.org%3A6969","udp%3A%2F%2Fzer0day.ch%3A1337","udp%3A%2F%2Fopen.demonii.com%3A1337","udp%3A%2F%2Ftracker.coppersurfer.tk%3A6969","udp%3A%2F%2Fexodus.desync.com%3A6969"],"infoHash":"b04c6084337fba95b3cf0f9926654f0e656fcf72","infoHashBuffer":{"type":"Buffer","data":[176,76,96,132,51,127,186,149,179,207,15,153,38,101,79,14,101,111,207,114]},"announce":[],"urlList":[]}}